<?xml version="1.0" encoding="UTF-8"?>
<svg xmlns="http://www.w3.org/2000/svg" viewBox="0 0 50 50">
    <path d="M 12 2 C 8.691 2 6 4.691 6 8 L 6 42.417969 C 6 45.495969 8.691 48 12 48 L 44 48 L 44 46 L 12 46 C 9.832 46 8 44.359969 8 42.417969 C 8 40.501969 9.757 39 12 39 L 44 39 L 44 2 L 12 2 z M 19.300781 14.900391 C 20.000781 14.900391 20.600391 14.999219 20.900391 15.199219 L 21 15.300781 L 20.599609 16.900391 L 20.300781 16.800781 C 20.100781 16.700781 19.800781 16.599609 19.300781 16.599609 C 18.200781 16.599609 16.900391 17.7 16.900391 21 C 16.900391 23.8 17.800391 25.400391 19.400391 25.400391 C 19.900391 25.400391 20.4 25.299219 20.5 25.199219 L 20.800781 25 L 21.099609 26.599609 L 20.900391 26.699219 C 20.500391 26.899219 19.799609 27 19.099609 27 C 16.499609 27 15 24.799609 15 21.099609 C 15 16.499609 17.300781 14.900391 19.300781 14.900391 z M 25.599609 15 C 26.799609 15 27.700781 15.300391 28.300781 15.900391 C 28.800781 16.400391 29.099609 17.1 29.099609 18 C 29.099609 19.1 28.599219 20 27.699219 20.5 C 28.799219 21 29.500391 22.100391 29.400391 23.400391 C 29.400391 24.300391 29.1 25.200781 28.5 25.800781 C 27.9 26.500781 26.800781 26.900391 25.300781 26.900391 C 24.600781 26.900391 23.999609 26.900781 23.599609 26.800781 L 23.400391 26.800781 L 23.400391 15.199219 L 23.599609 15.199219 C 24.199609 15.099219 24.899609 15 25.599609 15 z M 31.300781 15 L 36.900391 15 L 36.900391 16.300781 L 33.099609 25.400391 L 36.900391 25.400391 L 36.900391 27 L 31 27 L 31 25.900391 L 34.800781 16.599609 L 31.300781 16.599609 L 31.300781 15 z M 25.300781 16.5 L 25.300781 19.900391 L 25.599609 19.900391 C 26.499609 19.900391 27.300781 19.099609 27.300781 18.099609 C 27.300781 16.999609 26.799219 16.5 25.699219 16.5 L 25.300781 16.5 z M 25.199219 21.400391 L 25.199219 25.5 L 25.599609 25.5 C 26.899609 25.5 27.599609 24.8 27.599609 23.5 C 27.599609 22 26.5 21.400391 25.5 21.400391 L 25.199219 21.400391 z"/>
</svg>